<svg viewBox="0 0 34 29" fill="currentColor" xmlns="http://www.w3.org/2000/svg">
<path fill-rule="evenodd" clip-rule="evenodd" d="M21.8942 5.95104C23.4214 5.95104 24.6709 4.70154 24.6709 3.17437C24.6709 1.64721 23.4214 0.397705 21.8942 0.397705C20.3671 0.397705 19.1176 1.64721 19.1176 3.17437C19.1176 4.70154 20.3671 5.95104 21.8942 5.95104Z"/>
<path fill-rule="evenodd" clip-rule="evenodd" d="M0.375 21.9169C0.375 18.0296 3.42933 14.9752 7.31667 14.9752C11.204 14.9752 14.2583 18.0296 14.2583 21.9169C14.2583 25.8042 11.204 28.8586 7.31667 28.8586C3.42933 28.8586 0.375 25.8042 0.375 21.9169ZM2.4575 21.9169C2.4575 24.5547 4.67884 26.7761 7.31667 26.7761C9.9545 26.7761 12.1758 24.5547 12.1758 21.9169C12.1758 19.2791 9.9545 17.0577 7.31667 17.0577C4.67884 17.0577 2.4575 19.2791 2.4575 21.9169Z"/>
<path fill-rule="evenodd" clip-rule="evenodd" d="M15.3688 12.8927L18.7008 9.56067L19.8115 10.6713C21.2831 12.143 23.1157 13.1426 25.3093 13.4758C26.1423 13.6007 26.892 12.9343 26.892 12.0874C26.892 11.4072 26.3783 10.8241 25.7119 10.713C24.1708 10.4631 22.9074 9.72727 21.894 8.72767L19.2561 6.08984C18.562 5.5345 17.8678 5.25684 17.0348 5.25684C16.2018 5.25684 15.5076 5.5345 15.0911 6.08984L11.2038 9.97717C10.6485 10.5325 10.3708 11.2267 10.3708 11.9208C10.3708 12.7538 10.6485 13.448 11.2038 13.8645L15.6465 17.7518V23.3052C15.6465 24.0688 16.2712 24.6935 17.0348 24.6935C17.7984 24.6935 18.4231 24.0688 18.4231 23.3052V17.1965C18.4231 16.4746 18.1455 15.7943 17.6595 15.2806L15.3688 12.8927Z"/>
<path fill-rule="evenodd" clip-rule="evenodd" d="M19.8116 21.9169C19.8116 18.0296 22.866 14.9752 26.7533 14.9752C30.6406 14.9752 33.695 18.0296 33.695 21.9169C33.695 25.8042 30.6406 28.8586 26.7533 28.8586C22.866 28.8586 19.8116 25.8042 19.8116 21.9169ZM21.8941 21.9169C21.8941 24.5547 24.1154 26.7761 26.7533 26.7761C29.3911 26.7761 31.6124 24.5547 31.6124 21.9169C31.6124 19.2791 29.3911 17.0577 26.7533 17.0577C24.1154 17.0577 21.8941 19.2791 21.8941 21.9169Z"/>
</svg>
