<svg viewBox="0 0 18 30" fill="currentColor" xmlns="http://www.w3.org/2000/svg">
<path fill-rule="evenodd" clip-rule="evenodd" d="M10.3665 5.79309C11.8502 5.79309 13.0641 4.57913 13.0641 3.0954C13.0641 1.61167 11.8502 0.397705 10.3665 0.397705C8.88272 0.397705 7.66876 1.61167 7.66876 3.0954C7.66876 4.57913 8.88272 5.79309 10.3665 5.79309Z"/>
<path fill-rule="evenodd" clip-rule="evenodd" d="M5.30817 10.3792L1.90908 27.7928C1.74722 28.6291 2.38118 29.3979 3.23095 29.3979H3.35235C3.9863 29.3979 4.53933 28.9528 4.67422 28.3323L6.7919 18.6071L9.69192 21.3048V28.0491C9.69192 28.7909 10.2989 29.3979 11.0408 29.3979C11.7826 29.3979 12.3896 28.7909 12.3896 28.0491V20.3337C12.3896 19.6188 12.1064 18.9309 11.5938 18.4318L9.62448 16.449L10.4338 12.4025C11.8771 14.1829 13.9138 15.4104 16.2473 15.7881C17.0566 15.9229 17.785 15.262 17.785 14.4392C17.785 13.7783 17.2994 13.2252 16.652 13.1173C14.6422 12.7801 12.9426 11.5662 11.9175 9.90709L10.6361 7.74893C10.164 6.93963 9.28727 6.46753 8.34308 6.46753C8.00587 6.46753 7.66865 6.53497 7.33144 6.66986L1.92257 8.88196C0.910935 9.30011 0.25 10.2848 0.25 11.3773V14.5606C0.25 15.3025 0.856981 15.9095 1.59885 15.9095C2.34071 15.9095 2.94769 15.3025 2.94769 14.5606V11.3908L5.30817 10.3792V10.3792Z"/>
</svg>
