<svg viewBox="0 0 22 30" fill="currentColor" xmlns="http://www.w3.org/2000/svg">
<path fill-rule="evenodd" clip-rule="evenodd" d="M14.3142 5.82183C15.7961 5.82183 17.0086 4.60934 17.0086 3.12741C17.0086 1.64547 15.7961 0.432983 14.3142 0.432983C12.8322 0.432983 11.6198 1.64547 11.6198 3.12741C11.6198 4.60934 12.8322 5.82183 14.3142 5.82183Z"/>
<path fill-rule="evenodd" clip-rule="evenodd" d="M10.0436 21.9883L10.8115 18.6203L13.6407 21.3147V28.0507C13.6407 28.7917 14.2469 29.398 14.9879 29.398C15.7289 29.398 16.3351 28.7917 16.3351 28.0507V20.4525C16.3351 19.7115 16.0387 19.011 15.4998 18.499L13.506 16.5994L14.3143 12.5578C15.7558 14.2284 17.844 15.4274 20.1881 15.8046C20.9965 15.9258 21.724 15.2792 21.724 14.4574C21.724 13.7972 21.239 13.2449 20.5788 13.1371C18.5311 12.8003 16.8336 11.5878 15.9309 9.99811L14.5837 7.84257C14.0449 7.03425 13.2365 6.49536 12.2935 6.49536C11.8893 6.49536 11.6199 6.63008 11.2157 6.63008L5.85381 8.8934C4.85687 9.3245 4.21021 10.2945 4.21021 11.3857V14.5786C4.21021 15.3196 4.81646 15.9258 5.55742 15.9258C6.29839 15.9258 6.90463 15.3196 6.90463 14.5786V11.3453L9.32961 10.4023L7.17408 21.3147L1.89301 20.2369C1.16551 20.0887 0.45149 20.5602 0.303297 21.2877V21.3416C0.155104 22.0691 0.626628 22.7831 1.35412 22.9313L6.89116 24.0361C8.3192 24.319 9.7203 23.4163 10.0436 21.9883Z"/>
</svg>
